<?xml version="1.0" encoding="UTF-8" standalone="no"?>
<!DOCTYPE svg PUBLIC "-//W3C//DTD SVG 1.1//EN"
 "http://www.w3.org/Graphics/SVG/1.1/DTD/svg11.dtd">
<!-- Generated by graphviz version 2.38.0 (20140413.2041)
 -->
<!-- Title: MusicPracticeApi Pages: 1 -->
<svg width="413pt" height="396pt"
 viewBox="0.00 0.00 413.18 395.60" xmlns="http://www.w3.org/2000/svg" xmlns:xlink="http://www.w3.org/1999/xlink">
<g id="graph0" class="graph" transform="scale(1 1) rotate(0) translate(28.8 366.8)">
<title>MusicPracticeApi</title>
<polygon fill="white" stroke="none" points="-28.8,28.8 -28.8,-366.8 384.381,-366.8 384.381,28.8 -28.8,28.8"/>
<text text-anchor="middle" x="177.79" y="-323.6" font-family="Arial Bold" font-size="13.00">MusicPracticeApi domain model</text>
<!-- m_Music -->
<g id="node1" class="node"><title>m_Music</title>
<path fill="none" stroke="black" d="M12,-73.5C12,-73.5 132,-73.5 132,-73.5 138,-73.5 144,-79.5 144,-85.5 144,-85.5 144,-182.5 144,-182.5 144,-188.5 138,-194.5 132,-194.5 132,-194.5 12,-194.5 12,-194.5 6,-194.5 0,-188.5 0,-182.5 0,-182.5 0,-85.5 0,-85.5 0,-79.5 6,-73.5 12,-73.5"/>
<text text-anchor="start" x="54" y="-181.7" font-family="Arial Bold" font-size="11.00">Music</text>
<polyline fill="none" stroke="black" points="0,-174.5 144,-174.5 "/>
<text text-anchor="start" x="7" y="-161" font-family="Arial" font-size="10.00">arranger </text>
<text text-anchor="start" x="46" y="-161" font-family="Arial Italic" font-size="10.00" fill="#999999">string</text>
<text text-anchor="start" x="7" y="-148" font-family="Arial" font-size="10.00">category </text>
<text text-anchor="start" x="48" y="-148" font-family="Arial Italic" font-size="10.00" fill="#999999">integer ∗</text>
<text text-anchor="start" x="7" y="-135" font-family="Arial" font-size="10.00">composer </text>
<text text-anchor="start" x="53" y="-135" font-family="Arial Italic" font-size="10.00" fill="#999999">string ∗</text>
<text text-anchor="start" x="7" y="-122" font-family="Arial" font-size="10.00">last_played </text>
<text text-anchor="start" x="60" y="-122" font-family="Arial Italic" font-size="10.00" fill="#999999">datetime</text>
<text text-anchor="start" x="7" y="-109" font-family="Arial" font-size="10.00">status </text>
<text text-anchor="start" x="38" y="-109" font-family="Arial Italic" font-size="10.00" fill="#999999">integer ∗</text>
<text text-anchor="start" x="7" y="-96" font-family="Arial" font-size="10.00">style </text>
<text text-anchor="start" x="32" y="-96" font-family="Arial Italic" font-size="10.00" fill="#999999">string ∗</text>
<text text-anchor="start" x="7" y="-83" font-family="Arial" font-size="10.00">title </text>
<text text-anchor="start" x="26" y="-83" font-family="Arial Italic" font-size="10.00" fill="#999999">string ∗</text>
</g>
<!-- m_RehearsedMusic -->
<g id="node3" class="node"><title>m_RehearsedMusic</title>
<path fill="none" stroke="black" d="M98,-0.5C98,-0.5 218,-0.5 218,-0.5 224,-0.5 230,-6.5 230,-12.5 230,-12.5 230,-24.5 230,-24.5 230,-30.5 224,-36.5 218,-36.5 218,-36.5 98,-36.5 98,-36.5 92,-36.5 86,-30.5 86,-24.5 86,-24.5 86,-12.5 86,-12.5 86,-6.5 92,-0.5 98,-0.5"/>
<text text-anchor="start" x="110.5" y="-15.7" font-family="Arial Bold" font-size="11.00">RehearsedMusic</text>
</g>
<!-- m_Music&#45;&gt;m_RehearsedMusic -->
<g id="edge4" class="edge"><title>m_Music&#45;&gt;m_RehearsedMusic</title>
<path fill="none" stroke="black" d="M117.267,-73.2586C125.154,-62.8495 132.939,-52.575 139.557,-43.8411"/>
<polygon fill="black" stroke="black" points="142.12,-45.6735 145.045,-36.5977 137.099,-41.8687 142.12,-45.6735"/>
</g>
<!-- m_PracticeSession -->
<g id="node2" class="node"><title>m_PracticeSession</title>
<path fill="none" stroke="black" d="M185,-93C185,-93 305,-93 305,-93 311,-93 317,-99 317,-105 317,-105 317,-163 317,-163 317,-169 311,-175 305,-175 305,-175 185,-175 185,-175 179,-175 173,-169 173,-163 173,-163 173,-105 173,-105 173,-99 179,-93 185,-93"/>
<text text-anchor="start" x="199.5" y="-162.2" font-family="Arial Bold" font-size="11.00">PracticeSession</text>
<polyline fill="none" stroke="black" points="173,-155 317,-155 "/>
<text text-anchor="start" x="180" y="-142" font-family="Arial" font-size="10.00">attachments </text>
<text text-anchor="start" x="238" y="-142" font-family="Arial Italic" font-size="10.00" fill="#999999">string</text>
<text text-anchor="start" x="180" y="-129" font-family="Arial" font-size="10.00">goals </text>
<text text-anchor="start" x="207" y="-129" font-family="Arial Italic" font-size="10.00" fill="#999999">string ∗</text>
<text text-anchor="start" x="180" y="-116" font-family="Arial" font-size="10.00">notes </text>
<text text-anchor="start" x="208" y="-116" font-family="Arial Italic" font-size="10.00" fill="#999999">string</text>
<text text-anchor="start" x="180" y="-103" font-family="Arial" font-size="10.00">status </text>
<text text-anchor="start" x="211" y="-103" font-family="Arial Italic" font-size="10.00" fill="#999999">integer</text>
</g>
<!-- m_PracticeSession&#45;&gt;m_Music -->
<g id="edge3" class="edge"><title>m_PracticeSession&#45;&gt;m_Music</title>
<path fill="none" stroke="black" stroke-dasharray="1,5" d="M172.628,-134C166.286,-134 159.943,-134 153.601,-134"/>
<polygon fill="black" stroke="black" points="153.309,-130.85 144.309,-134 153.309,-137.15 153.309,-130.85"/>
</g>
<!-- m_PracticeSession&#45;&gt;m_RehearsedMusic -->
<g id="edge2" class="edge"><title>m_PracticeSession&#45;&gt;m_RehearsedMusic</title>
<path fill="none" stroke="black" d="M214.327,-92.9841C201.861,-76.7213 187.852,-58.4448 176.923,-44.1871"/>
<polygon fill="black" stroke="black" points="179.173,-41.9446 171.198,-36.718 174.173,-45.7773 179.173,-41.9446"/>
</g>
<!-- m_User -->
<g id="node4" class="node"><title>m_User</title>
<path fill="none" stroke="black" d="M98,-231.5C98,-231.5 218,-231.5 218,-231.5 224,-231.5 230,-237.5 230,-243.5 230,-243.5 230,-288.5 230,-288.5 230,-294.5 224,-300.5 218,-300.5 218,-300.5 98,-300.5 98,-300.5 92,-300.5 86,-294.5 86,-288.5 86,-288.5 86,-243.5 86,-243.5 86,-237.5 92,-231.5 98,-231.5"/>
<text text-anchor="start" x="143" y="-287.7" font-family="Arial Bold" font-size="11.00">User</text>
<polyline fill="none" stroke="black" points="86,-280.5 230,-280.5 "/>
<text text-anchor="start" x="93" y="-267" font-family="Arial" font-size="10.00">email </text>
<text text-anchor="start" x="120" y="-267" font-family="Arial Italic" font-size="10.00" fill="#999999">string ∗ U</text>
<text text-anchor="start" x="93" y="-254" font-family="Arial" font-size="10.00">password_digest </text>
<text text-anchor="start" x="169" y="-254" font-family="Arial Italic" font-size="10.00" fill="#999999">string ∗</text>
<text text-anchor="start" x="93" y="-241" font-family="Arial" font-size="10.00">username </text>
<text text-anchor="start" x="139" y="-241" font-family="Arial Italic" font-size="10.00" fill="#999999">string ∗ U</text>
</g>
<!-- m_User&#45;&gt;m_Music -->
<g id="edge5" class="edge"><title>m_User&#45;&gt;m_Music</title>
<path fill="none" stroke="black" d="M135.629,-231.183C129.72,-222.251 123.129,-212.289 116.492,-202.255"/>
<polygon fill="black" stroke="black" points="119.01,-200.352 111.417,-194.584 113.755,-203.828 119.01,-200.352"/>
</g>
<!-- m_User&#45;&gt;m_PracticeSession -->
<g id="edge1" class="edge"><title>m_User&#45;&gt;m_PracticeSession</title>
<path fill="none" stroke="black" d="M180.631,-231.183C190.496,-216.443 202.237,-198.898 212.974,-182.854"/>
<polygon fill="black" stroke="black" points="215.764,-184.349 218.152,-175.118 210.529,-180.845 215.764,-184.349"/>
</g>
<!-- m_User&#45;&gt;m_RehearsedMusic -->
<g id="edge6" class="edge"><title>m_User&#45;&gt;m_RehearsedMusic</title>
<path fill="none" stroke="black" stroke-dasharray="1,5" d="M230.159,-255.264C267.196,-246.206 309.215,-228.726 332,-195 362.354,-150.07 364.218,-116.613 332,-73 310.539,-43.9482 273.561,-30.173 239.198,-23.8247"/>
<polygon fill="black" stroke="black" points="239.458,-20.6745 230.061,-22.2951 238.417,-26.888 239.458,-20.6745"/>
</g>
</g>
</svg>
