<?xml version="1.0" encoding="UTF-8" standalone="no"?>
<!DOCTYPE svg PUBLIC "-//W3C//DTD SVG 1.1//EN"
 "http://www.w3.org/Graphics/SVG/1.1/DTD/svg11.dtd">
<!-- Generated by graphviz version 2.38.0 (20140413.2041)
 -->
<!-- Title: MusicPracticeApi Pages: 1 -->
<svg width="261pt" height="442pt"
 viewBox="0.00 0.00 260.60 441.60" xmlns="http://www.w3.org/2000/svg" xmlns:xlink="http://www.w3.org/1999/xlink">
<g id="graph0" class="graph" transform="scale(1 1) rotate(0) translate(28.8 412.8)">
<title>MusicPracticeApi</title>
<polygon fill="white" stroke="none" points="-28.8,28.8 -28.8,-412.8 231.8,-412.8 231.8,28.8 -28.8,28.8"/>
<text text-anchor="middle" x="101.5" y="-369.6" font-family="Arial Bold" font-size="13.00">MusicPracticeApi domain model</text>
<!-- m_Music -->
<g id="node1" class="node"><title>m_Music</title>
<path fill="none" stroke="black" d="M12.5,-119.5C12.5,-119.5 132.5,-119.5 132.5,-119.5 138.5,-119.5 144.5,-125.5 144.5,-131.5 144.5,-131.5 144.5,-228.5 144.5,-228.5 144.5,-234.5 138.5,-240.5 132.5,-240.5 132.5,-240.5 12.5,-240.5 12.5,-240.5 6.5,-240.5 0.5,-234.5 0.5,-228.5 0.5,-228.5 0.5,-131.5 0.5,-131.5 0.5,-125.5 6.5,-119.5 12.5,-119.5"/>
<text text-anchor="start" x="54.5" y="-227.7" font-family="Arial Bold" font-size="11.00">Music</text>
<polyline fill="none" stroke="black" points="0.5,-220.5 144.5,-220.5 "/>
<text text-anchor="start" x="7.5" y="-207" font-family="Arial" font-size="10.00">arranger </text>
<text text-anchor="start" x="46.5" y="-207" font-family="Arial Italic" font-size="10.00" fill="#999999">string</text>
<text text-anchor="start" x="7.5" y="-194" font-family="Arial" font-size="10.00">category </text>
<text text-anchor="start" x="48.5" y="-194" font-family="Arial Italic" font-size="10.00" fill="#999999">integer ∗</text>
<text text-anchor="start" x="7.5" y="-181" font-family="Arial" font-size="10.00">composer </text>
<text text-anchor="start" x="53.5" y="-181" font-family="Arial Italic" font-size="10.00" fill="#999999">string ∗</text>
<text text-anchor="start" x="7.5" y="-168" font-family="Arial" font-size="10.00">last_played </text>
<text text-anchor="start" x="60.5" y="-168" font-family="Arial Italic" font-size="10.00" fill="#999999">datetime</text>
<text text-anchor="start" x="7.5" y="-155" font-family="Arial" font-size="10.00">status </text>
<text text-anchor="start" x="38.5" y="-155" font-family="Arial Italic" font-size="10.00" fill="#999999">integer ∗</text>
<text text-anchor="start" x="7.5" y="-142" font-family="Arial" font-size="10.00">style </text>
<text text-anchor="start" x="32.5" y="-142" font-family="Arial Italic" font-size="10.00" fill="#999999">string ∗</text>
<text text-anchor="start" x="7.5" y="-129" font-family="Arial" font-size="10.00">title </text>
<text text-anchor="start" x="26.5" y="-129" font-family="Arial Italic" font-size="10.00" fill="#999999">string ∗</text>
</g>
<!-- m_PracticeSession -->
<g id="node2" class="node"><title>m_PracticeSession</title>
<path fill="none" stroke="black" d="M70.5,-0.5C70.5,-0.5 190.5,-0.5 190.5,-0.5 196.5,-0.5 202.5,-6.5 202.5,-12.5 202.5,-12.5 202.5,-70.5 202.5,-70.5 202.5,-76.5 196.5,-82.5 190.5,-82.5 190.5,-82.5 70.5,-82.5 70.5,-82.5 64.5,-82.5 58.5,-76.5 58.5,-70.5 58.5,-70.5 58.5,-12.5 58.5,-12.5 58.5,-6.5 64.5,-0.5 70.5,-0.5"/>
<text text-anchor="start" x="85" y="-69.7" font-family="Arial Bold" font-size="11.00">PracticeSession</text>
<polyline fill="none" stroke="black" points="58.5,-62.5 202.5,-62.5 "/>
<text text-anchor="start" x="65.5" y="-49.5" font-family="Arial" font-size="10.00">attachments </text>
<text text-anchor="start" x="123.5" y="-49.5" font-family="Arial Italic" font-size="10.00" fill="#999999">string</text>
<text text-anchor="start" x="65.5" y="-36.5" font-family="Arial" font-size="10.00">goals </text>
<text text-anchor="start" x="92.5" y="-36.5" font-family="Arial Italic" font-size="10.00" fill="#999999">string ∗</text>
<text text-anchor="start" x="65.5" y="-23.5" font-family="Arial" font-size="10.00">notes </text>
<text text-anchor="start" x="93.5" y="-23.5" font-family="Arial Italic" font-size="10.00" fill="#999999">string</text>
<text text-anchor="start" x="65.5" y="-10.5" font-family="Arial" font-size="10.00">status </text>
<text text-anchor="start" x="96.5" y="-10.5" font-family="Arial Italic" font-size="10.00" fill="#999999">integer</text>
</g>
<!-- m_Music&#45;&gt;m_PracticeSession -->
<g id="edge2" class="edge"><title>m_Music&#45;&gt;m_PracticeSession</title>
<path fill="none" stroke="black" d="M97.9396,-119.129C101.907,-109.792 105.965,-100.243 109.809,-91.1946"/>
<polygon fill="black" stroke="black" points="112.8,-92.2112 113.42,-82.6961 107.002,-89.7475 112.8,-92.2112"/>
</g>
<!-- m_User -->
<g id="node3" class="node"><title>m_User</title>
<path fill="none" stroke="black" d="M70.5,-277.5C70.5,-277.5 190.5,-277.5 190.5,-277.5 196.5,-277.5 202.5,-283.5 202.5,-289.5 202.5,-289.5 202.5,-334.5 202.5,-334.5 202.5,-340.5 196.5,-346.5 190.5,-346.5 190.5,-346.5 70.5,-346.5 70.5,-346.5 64.5,-346.5 58.5,-340.5 58.5,-334.5 58.5,-334.5 58.5,-289.5 58.5,-289.5 58.5,-283.5 64.5,-277.5 70.5,-277.5"/>
<text text-anchor="start" x="115.5" y="-333.7" font-family="Arial Bold" font-size="11.00">User</text>
<polyline fill="none" stroke="black" points="58.5,-326.5 202.5,-326.5 "/>
<text text-anchor="start" x="65.5" y="-313" font-family="Arial" font-size="10.00">email </text>
<text text-anchor="start" x="92.5" y="-313" font-family="Arial Italic" font-size="10.00" fill="#999999">string ∗ U</text>
<text text-anchor="start" x="65.5" y="-300" font-family="Arial" font-size="10.00">password_digest </text>
<text text-anchor="start" x="141.5" y="-300" font-family="Arial Italic" font-size="10.00" fill="#999999">string ∗</text>
<text text-anchor="start" x="65.5" y="-287" font-family="Arial" font-size="10.00">username </text>
<text text-anchor="start" x="111.5" y="-287" font-family="Arial Italic" font-size="10.00" fill="#999999">string ∗ U</text>
</g>
<!-- m_User&#45;&gt;m_Music -->
<g id="edge3" class="edge"><title>m_User&#45;&gt;m_Music</title>
<path fill="none" stroke="black" d="M115.413,-277.183C111.505,-268.426 107.157,-258.679 102.769,-248.845"/>
<polygon fill="black" stroke="black" points="105.627,-247.519 99.0834,-240.584 99.8738,-250.086 105.627,-247.519"/>
</g>
<!-- m_User&#45;&gt;m_PracticeSession -->
<g id="edge1" class="edge"><title>m_User&#45;&gt;m_PracticeSession</title>
<path fill="none" stroke="black" d="M147.59,-277.308C152.439,-266.056 157.062,-253.256 159.5,-241 170.08,-187.82 169.27,-172.335 159.5,-119 157.813,-109.789 155.071,-100.248 151.93,-91.1589"/>
<polygon fill="black" stroke="black" points="154.856,-89.9877 148.818,-82.608 148.936,-92.1426 154.856,-89.9877"/>
</g>
</g>
</svg>
