<?xml version="1.0" encoding="UTF-8" standalone="no"?>
<!DOCTYPE svg PUBLIC "-//W3C//DTD SVG 1.1//EN"
 "http://www.w3.org/Graphics/SVG/1.1/DTD/svg11.dtd">
<!-- Generated by graphviz version 2.44.0 ()
 -->
<!-- Title: MusicPracticeApi Pages: 1 -->
<svg width="442pt" height="396pt"
 viewBox="0.00 0.00 442.46 395.60" xmlns="http://www.w3.org/2000/svg" xmlns:xlink="http://www.w3.org/1999/xlink">
<g id="graph0" class="graph" transform="scale(1 1) rotate(0) translate(28.8 366.8)">
<title>MusicPracticeApi</title>
<polygon fill="white" stroke="transparent" points="-28.8,28.8 -28.8,-366.8 413.66,-366.8 413.66,28.8 -28.8,28.8"/>
<text text-anchor="middle" x="192.43" y="-323.6" font-family="Arial Bold" font-size="13.00">MusicPracticeApi domain model</text>
<!-- m_Music -->
<g id="node1" class="node">
<title>m_Music</title>
<path fill="none" stroke="black" d="M12,-73.5C12,-73.5 154,-73.5 154,-73.5 160,-73.5 166,-79.5 166,-85.5 166,-85.5 166,-182.5 166,-182.5 166,-188.5 160,-194.5 154,-194.5 154,-194.5 12,-194.5 12,-194.5 6,-194.5 0,-188.5 0,-182.5 0,-182.5 0,-85.5 0,-85.5 0,-79.5 6,-73.5 12,-73.5"/>
<text text-anchor="start" x="62" y="-181.7" font-family="Arial Bold" font-size="11.00">Music</text>
<polyline fill="none" stroke="black" points="0,-174.5 166,-174.5 "/>
<text text-anchor="start" x="7" y="-161" font-family="Arial" font-size="10.00">arranger </text>
<text text-anchor="start" x="75" y="-161" font-family="Arial Italic" font-size="10.00" fill="#999999">string</text>
<text text-anchor="start" x="7" y="-148" font-family="Arial" font-size="10.00">category </text>
<text text-anchor="start" x="75" y="-148" font-family="Arial Italic" font-size="10.00" fill="#999999">integer ∗</text>
<text text-anchor="start" x="7" y="-135" font-family="Arial" font-size="10.00">composer </text>
<text text-anchor="start" x="75" y="-135" font-family="Arial Italic" font-size="10.00" fill="#999999">string ∗</text>
<text text-anchor="start" x="7" y="-122" font-family="Arial" font-size="10.00">last_played </text>
<text text-anchor="start" x="98" y="-122" font-family="Arial Italic" font-size="10.00" fill="#999999">datetime</text>
<text text-anchor="start" x="7" y="-109" font-family="Arial" font-size="10.00">status </text>
<text text-anchor="start" x="60" y="-109" font-family="Arial Italic" font-size="10.00" fill="#999999">integer ∗</text>
<text text-anchor="start" x="7" y="-96" font-family="Arial" font-size="10.00">style </text>
<text text-anchor="start" x="53" y="-96" font-family="Arial Italic" font-size="10.00" fill="#999999">string ∗</text>
<text text-anchor="start" x="7" y="-83" font-family="Arial" font-size="10.00">title </text>
<text text-anchor="start" x="53" y="-83" font-family="Arial Italic" font-size="10.00" fill="#999999">string ∗</text>
</g>
<!-- m_RehearsedMusic -->
<g id="node3" class="node">
<title>m_RehearsedMusic</title>
<path fill="none" stroke="black" d="M117,-0.5C117,-0.5 237,-0.5 237,-0.5 243,-0.5 249,-6.5 249,-12.5 249,-12.5 249,-24.5 249,-24.5 249,-30.5 243,-36.5 237,-36.5 237,-36.5 117,-36.5 117,-36.5 111,-36.5 105,-30.5 105,-24.5 105,-24.5 105,-12.5 105,-12.5 105,-6.5 111,-0.5 117,-0.5"/>
<text text-anchor="start" x="122" y="-15.7" font-family="Arial Bold" font-size="11.00">RehearsedMusic</text>
</g>
<!-- m_Music&#45;&gt;m_RehearsedMusic -->
<g id="edge4" class="edge">
<title>m_Music&#45;&gt;m_RehearsedMusic</title>
<path fill="none" stroke="black" d="M132.48,-73.26C141.19,-62.74 149.78,-52.37 157.06,-43.58"/>
<polygon fill="black" stroke="black" points="159.53,-45.54 162.84,-36.6 154.67,-41.52 159.53,-45.54"/>
</g>
<!-- m_PracticeSession -->
<g id="node2" class="node">
<title>m_PracticeSession</title>
<path fill="none" stroke="black" d="M207.5,-93C207.5,-93 334.5,-93 334.5,-93 340.5,-93 346.5,-99 346.5,-105 346.5,-105 346.5,-163 346.5,-163 346.5,-169 340.5,-175 334.5,-175 334.5,-175 207.5,-175 207.5,-175 201.5,-175 195.5,-169 195.5,-163 195.5,-163 195.5,-105 195.5,-105 195.5,-99 201.5,-93 207.5,-93"/>
<text text-anchor="start" x="212.5" y="-162.2" font-family="Arial Bold" font-size="11.00">PracticeSession</text>
<polyline fill="none" stroke="black" points="195.5,-155 346.5,-155 "/>
<text text-anchor="start" x="203" y="-142" font-family="Arial" font-size="10.00">attachments </text>
<text text-anchor="start" x="294" y="-142" font-family="Arial Italic" font-size="10.00" fill="#999999">string</text>
<text text-anchor="start" x="203" y="-129" font-family="Arial" font-size="10.00">goals </text>
<text text-anchor="start" x="249" y="-129" font-family="Arial Italic" font-size="10.00" fill="#999999">string ∗</text>
<text text-anchor="start" x="203" y="-116" font-family="Arial" font-size="10.00">notes </text>
<text text-anchor="start" x="249" y="-116" font-family="Arial Italic" font-size="10.00" fill="#999999">string</text>
<text text-anchor="start" x="203" y="-103" font-family="Arial" font-size="10.00">status </text>
<text text-anchor="start" x="256" y="-103" font-family="Arial Italic" font-size="10.00" fill="#999999">integer</text>
</g>
<!-- m_PracticeSession&#45;&gt;m_RehearsedMusic -->
<g id="edge2" class="edge">
<title>m_PracticeSession&#45;&gt;m_RehearsedMusic</title>
<path fill="none" stroke="black" d="M237.86,-92.98C224.27,-76.57 208.97,-58.11 197.12,-43.79"/>
<polygon fill="black" stroke="black" points="199.43,-41.64 191.26,-36.72 194.57,-45.66 199.43,-41.64"/>
</g>
<!-- m_User -->
<g id="node4" class="node">
<title>m_User</title>
<path fill="none" stroke="black" d="M91,-231.5C91,-231.5 263,-231.5 263,-231.5 269,-231.5 275,-237.5 275,-243.5 275,-243.5 275,-288.5 275,-288.5 275,-294.5 269,-300.5 263,-300.5 263,-300.5 91,-300.5 91,-300.5 85,-300.5 79,-294.5 79,-288.5 79,-288.5 79,-243.5 79,-243.5 79,-237.5 85,-231.5 91,-231.5"/>
<text text-anchor="start" x="159.5" y="-287.7" font-family="Arial Bold" font-size="11.00">User</text>
<polyline fill="none" stroke="black" points="79,-280.5 275,-280.5 "/>
<text text-anchor="start" x="86" y="-267" font-family="Arial" font-size="10.00">email </text>
<text text-anchor="start" x="132" y="-267" font-family="Arial Italic" font-size="10.00" fill="#999999">string ∗ U</text>
<text text-anchor="start" x="86" y="-254" font-family="Arial" font-size="10.00">password_digest </text>
<text text-anchor="start" x="207" y="-254" font-family="Arial Italic" font-size="10.00" fill="#999999">string ∗</text>
<text text-anchor="start" x="86" y="-241" font-family="Arial" font-size="10.00">username </text>
<text text-anchor="start" x="154" y="-241" font-family="Arial Italic" font-size="10.00" fill="#999999">string ∗ U</text>
</g>
<!-- m_User&#45;&gt;m_Music -->
<g id="edge5" class="edge">
<title>m_User&#45;&gt;m_Music</title>
<path fill="none" stroke="black" d="M152.55,-231.18C146.03,-222.16 138.74,-212.09 131.42,-201.96"/>
<polygon fill="black" stroke="black" points="133.91,-200.03 126.08,-194.58 128.8,-203.72 133.91,-200.03"/>
</g>
<!-- m_User&#45;&gt;m_PracticeSession -->
<g id="edge1" class="edge">
<title>m_User&#45;&gt;m_PracticeSession</title>
<path fill="none" stroke="black" d="M201.45,-231.18C212.21,-216.31 225.03,-198.58 236.71,-182.42"/>
<polygon fill="black" stroke="black" points="239.27,-184.26 241.99,-175.12 234.17,-180.57 239.27,-184.26"/>
</g>
<!-- m_User&#45;&gt;m_RehearsedMusic -->
<g id="edge6" class="edge">
<title>m_User&#45;&gt;m_RehearsedMusic</title>
<path fill="none" stroke="black" stroke-dasharray="1,5" d="M275.16,-250.64C307.98,-240.64 341.21,-223.7 361,-195 391.78,-150.36 393.55,-116.36 361,-73 348.11,-55.83 301.42,-42.37 258.31,-33.24"/>
<polygon fill="black" stroke="black" points="258.91,-30.15 249.46,-31.42 257.64,-36.32 258.91,-30.15"/>
</g>
</g>
</svg>
