<?xml version="1.0" encoding="UTF-8" standalone="no"?>
<!DOCTYPE svg PUBLIC "-//W3C//DTD SVG 1.1//EN"
 "http://www.w3.org/Graphics/SVG/1.1/DTD/svg11.dtd">
<!-- Generated by graphviz version 7.0.5 (20221223.1930)
 -->
<!-- Title: MusicPracticeApi Pages: 1 -->
<svg width="292pt" height="429pt"
 viewBox="0.00 0.00 291.60 428.60" xmlns="http://www.w3.org/2000/svg" xmlns:xlink="http://www.w3.org/1999/xlink">
<g id="graph0" class="graph" transform="scale(1 1) rotate(0) translate(28.8 399.8)">
<title>MusicPracticeApi</title>
<polygon fill="white" stroke="none" points="-28.8,28.8 -28.8,-399.8 262.8,-399.8 262.8,28.8 -28.8,28.8"/>
<text text-anchor="middle" x="117" y="-356.6" font-family="Arial Bold" font-size="13.00">MusicPracticeApi domain model</text>
<!-- m_Music -->
<g id="node1" class="node">
<title>m_Music</title>
<path fill="none" stroke="black" d="M13,-119.5C13,-119.5 139,-119.5 139,-119.5 145,-119.5 151,-125.5 151,-131.5 151,-131.5 151,-215.5 151,-215.5 151,-221.5 145,-227.5 139,-227.5 139,-227.5 13,-227.5 13,-227.5 7,-227.5 1,-221.5 1,-215.5 1,-215.5 1,-131.5 1,-131.5 1,-125.5 7,-119.5 13,-119.5"/>
<text text-anchor="start" x="55" y="-214.7" font-family="Arial Bold" font-size="11.00">Music</text>
<polyline fill="none" stroke="black" points="1,-207.5 151,-207.5"/>
<text text-anchor="start" x="8" y="-194.5" font-family="Arial" font-size="10.00">arranger </text>
<text text-anchor="start" x="76" y="-194.5" font-family="Arial Italic" font-size="10.00" fill="#999999">string</text>
<text text-anchor="start" x="8" y="-181.5" font-family="Arial" font-size="10.00">category </text>
<text text-anchor="start" x="76" y="-181.5" font-family="Arial Italic" font-size="10.00" fill="#999999">integer ∗</text>
<text text-anchor="start" x="8" y="-168.5" font-family="Arial" font-size="10.00">composer </text>
<text text-anchor="start" x="76" y="-168.5" font-family="Arial Italic" font-size="10.00" fill="#999999">string ∗</text>
<text text-anchor="start" x="8" y="-155.5" font-family="Arial" font-size="10.00">status </text>
<text text-anchor="start" x="61" y="-155.5" font-family="Arial Italic" font-size="10.00" fill="#999999">integer ∗</text>
<text text-anchor="start" x="8" y="-142.5" font-family="Arial" font-size="10.00">style </text>
<text text-anchor="start" x="54" y="-142.5" font-family="Arial Italic" font-size="10.00" fill="#999999">string ∗</text>
<text text-anchor="start" x="8" y="-129.5" font-family="Arial" font-size="10.00">title </text>
<text text-anchor="start" x="54" y="-129.5" font-family="Arial Italic" font-size="10.00" fill="#999999">string ∗</text>
</g>
<!-- m_PracticeSession -->
<g id="node2" class="node">
<title>m_PracticeSession</title>
<path fill="none" stroke="black" d="M71.5,-0.5C71.5,-0.5 198.5,-0.5 198.5,-0.5 204.5,-0.5 210.5,-6.5 210.5,-12.5 210.5,-12.5 210.5,-70.5 210.5,-70.5 210.5,-76.5 204.5,-82.5 198.5,-82.5 198.5,-82.5 71.5,-82.5 71.5,-82.5 65.5,-82.5 59.5,-76.5 59.5,-70.5 59.5,-70.5 59.5,-12.5 59.5,-12.5 59.5,-6.5 65.5,-0.5 71.5,-0.5"/>
<text text-anchor="start" x="76.5" y="-69.7" font-family="Arial Bold" font-size="11.00">PracticeSession</text>
<polyline fill="none" stroke="black" points="59.5,-62.5 210.5,-62.5"/>
<text text-anchor="start" x="67" y="-49.5" font-family="Arial" font-size="10.00">attachments </text>
<text text-anchor="start" x="158" y="-49.5" font-family="Arial Italic" font-size="10.00" fill="#999999">string</text>
<text text-anchor="start" x="67" y="-36.5" font-family="Arial" font-size="10.00">goals </text>
<text text-anchor="start" x="113" y="-36.5" font-family="Arial Italic" font-size="10.00" fill="#999999">string ∗</text>
<text text-anchor="start" x="67" y="-23.5" font-family="Arial" font-size="10.00">notes </text>
<text text-anchor="start" x="113" y="-23.5" font-family="Arial Italic" font-size="10.00" fill="#999999">string</text>
<text text-anchor="start" x="67" y="-10.5" font-family="Arial" font-size="10.00">status </text>
<text text-anchor="start" x="120" y="-10.5" font-family="Arial Italic" font-size="10.00" fill="#999999">integer</text>
</g>
<!-- m_Music&#45;&gt;m_PracticeSession -->
<g id="edge2" class="edge">
<title>m_Music&#45;&gt;m_PracticeSession</title>
<path fill="none" stroke="black" d="M100,-119.62C104.21,-110.34 108.58,-100.71 112.75,-91.53"/>
<polygon fill="black" stroke="black" points="115.52,-93.04 116.37,-83.54 109.78,-90.44 115.52,-93.04"/>
</g>
<!-- m_User -->
<g id="node3" class="node">
<title>m_User</title>
<path fill="none" stroke="black" d="M49,-264.5C49,-264.5 221,-264.5 221,-264.5 227,-264.5 233,-270.5 233,-276.5 233,-276.5 233,-321.5 233,-321.5 233,-327.5 227,-333.5 221,-333.5 221,-333.5 49,-333.5 49,-333.5 43,-333.5 37,-327.5 37,-321.5 37,-321.5 37,-276.5 37,-276.5 37,-270.5 43,-264.5 49,-264.5"/>
<text text-anchor="start" x="117.5" y="-320.7" font-family="Arial Bold" font-size="11.00">User</text>
<polyline fill="none" stroke="black" points="37,-313.5 233,-313.5"/>
<text text-anchor="start" x="44" y="-300" font-family="Arial" font-size="10.00">email </text>
<text text-anchor="start" x="90" y="-300" font-family="Arial Italic" font-size="10.00" fill="#999999">string ∗ U</text>
<text text-anchor="start" x="44" y="-287" font-family="Arial" font-size="10.00">password_digest </text>
<text text-anchor="start" x="165" y="-287" font-family="Arial Italic" font-size="10.00" fill="#999999">string ∗</text>
<text text-anchor="start" x="44" y="-274" font-family="Arial" font-size="10.00">username </text>
<text text-anchor="start" x="112" y="-274" font-family="Arial Italic" font-size="10.00" fill="#999999">string ∗ U</text>
</g>
<!-- m_User&#45;&gt;m_Music -->
<g id="edge1" class="edge">
<title>m_User&#45;&gt;m_Music</title>
<path fill="none" stroke="black" d="M119.03,-264.58C114.9,-255.92 110.3,-246.31 105.71,-236.68"/>
<polygon fill="black" stroke="black" points="108.68,-235.61 101.96,-228.85 103,-238.32 108.68,-235.61"/>
</g>
<!-- m_User&#45;&gt;m_PracticeSession -->
<g id="edge3" class="edge">
<title>m_User&#45;&gt;m_PracticeSession</title>
<path fill="none" stroke="black" d="M153.1,-264.78C158.34,-253.45 163.36,-240.48 166,-228 176.03,-180.6 175.27,-166.55 166,-119 164.25,-110.01 161.44,-100.73 158.2,-91.88"/>
<polygon fill="black" stroke="black" points="161.15,-90.77 154.96,-83.52 155.28,-93.05 161.15,-90.77"/>
</g>
</g>
</svg>
